{
  "accessors": [
    {
      "name": "170-Mesh_0_positions",
      "componentType": 5126,
      "count": 391,
      "min": [
        6809.68994140625,
        2777.939453125,
        3014.88037109375
      ],
      "max": [
        8155.31982421875,
        3784.7294921875,
        3752.700439453125
      ],
      "type": "VEC3",
      "bufferView": 0,
      "byteOffset": 0
    },
    {
      "name": "170-Mesh_0_normals",
      "componentType": 5126,
      "count": 391,
      "min": [
        -0.9916481971740723,
        -0.998957097530365,
        -0.9967765212059021
      ],
      "max": [
        0.9957576990127563,
        0.9971510171890259,
        0.9992691874504089
      ],
      "type": "VEC3",
      "bufferView": 1,
      "byteOffset": 0
    },
    {
      "name": "170-Mesh_0_indices",
      "componentType": 5123,
      "count": 2334,
      "min": [
        0
      ],
      "max": [
        390
      ],
      "type": "SCALAR",
      "bufferView": 2,
      "byteOffset": 0
    }
  ],
  "asset": {
    "generator": "obj2gltf",
    "version": "2.0"
  },
  "buffers": [
    {
      "name": "170_1",
      "byteLength": 14052,
      "uri": "data:application/octet-stream;base64,"
    }
  ],
  "bufferViews": [
    {
      "name": "bufferView_0",
      "buffer": 0,
      "byteLength": 4692,
      "byteOffset": 0,
      "byteStride": 12,
      "target": 34962
    },
    {
      "name": "bufferView_1",
      "buffer": 0,
      "byteLength": 4692,
      "byteOffset": 4692,
      "byteStride": 12,
      "target": 34962
    },
    {
      "name": "bufferView_2",
      "buffer": 0,
      "byteLength": 4668,
      "byteOffset": 9384,
      "target": 34963
    }
  ],
  "materials": [
    {
      "name": "default",
      "pbrMetallicRoughness": {
        "baseColorFactor": [
          0.5,
          0.5,
          0.5,
          1
        ],
        "metallicFactor": 0,
        "roughnessFactor": 1
      },
      "emissiveFactor": [
        0,
        0,
        0
      ],
      "alphaMode": "OPAQUE",
      "doubleSided": false
    }
  ],
  "meshes": [
    {
      "name": "170-Mesh",
      "primitives": [
        {
          "attributes": {
            "POSITION": 0,
            "NORMAL": 1
          },
          "indices": 2,
          "material": 0,
          "mode": 4
        }
      ]
    }
  ],
  "nodes": [
    {
      "name": "170",
      "mesh": 0
    }
  ],
  "scene": 0,
  "scenes": [
    {
      "nodes": [
        0
      ]
    }
  ]
}
