{
  "accessors": [
    {
      "name": "grp1_1_0_positions",
      "componentType": 5126,
      "count": 3532,
      "min": [
        7695.14013671875,
        370.57598876953125,
        2079.139892578125
      ],
      "max": [
        10361.900390625,
        2248.81005859375,
        9300.0703125
      ],
      "type": "VEC3",
      "bufferView": 0,
      "byteOffset": 0
    },
    {
      "name": "grp1_1_0_normals",
      "componentType": 5126,
      "count": 3532,
      "min": [
        -0.998749315738678,
        -0.9999709725379944,
        -0.9998817443847656
      ],
      "max": [
        0.9998101592063904,
        0.9964205026626587,
        0.9983439445495605
      ],
      "type": "VEC3",
      "bufferView": 1,
      "byteOffset": 0
    },
    {
      "name": "grp1_1_0_indices",
      "componentType": 5123,
      "count": 21168,
      "min": [
        0
      ],
      "max": [
        3531
      ],
      "type": "SCALAR",
      "bufferView": 2,
      "byteOffset": 0
    }
  ],
  "asset": {
    "generator": "obj2gltf",
    "version": "2.0"
  },
  "buffers": [
    {
      "name": "385",
      "byteLength": 127104,
      "uri": "data:application/octet-stream;base64,"
    }
  ],
  "bufferViews": [
    {
      "name": "bufferView_0",
      "buffer": 0,
      "byteLength": 42384,
      "byteOffset": 0,
      "byteStride": 12,
      "target": 34962
    },
    {
      "name": "bufferView_1",
      "buffer": 0,
      "byteLength": 42384,
      "byteOffset": 42384,
      "byteStride": 12,
      "target": 34962
    },
    {
      "name": "bufferView_2",
      "buffer": 0,
      "byteLength": 42336,
      "byteOffset": 84768,
      "target": 34963
    }
  ],
  "materials": [
    {
      "name": "mtl1",
      "pbrMetallicRoughness": {
        "baseColorFactor": [
          0.5,
          0.5,
          0.5,
          1
        ],
        "metallicFactor": 0,
        "roughnessFactor": 1
      },
      "emissiveFactor": [
        0,
        0,
        0
      ],
      "alphaMode": "OPAQUE",
      "doubleSided": false
    }
  ],
  "meshes": [
    {
      "name": "grp1_1",
      "primitives": [
        {
          "attributes": {
            "POSITION": 0,
            "NORMAL": 1
          },
          "indices": 2,
          "material": 0,
          "mode": 4
        }
      ]
    }
  ],
  "nodes": [
    {
      "name": "grp1",
      "mesh": 0
    }
  ],
  "scene": 0,
  "scenes": [
    {
      "nodes": [
        0
      ]
    }
  ]
}
