{
  "accessors": [
    {
      "name": "879-Mesh_0_positions",
      "componentType": 5126,
      "count": 1650,
      "min": [
        6055.35009765625,
        161.189208984375,
        3061.30029296875
      ],
      "max": [
        10141.7998046875,
        2363.409423828125,
        5679.16015625
      ],
      "type": "VEC3",
      "bufferView": 0,
      "byteOffset": 0
    },
    {
      "name": "879-Mesh_0_normals",
      "componentType": 5126,
      "count": 1650,
      "min": [
        -0.9998948574066162,
        -0.9997215270996094,
        -0.9991448521614075
      ],
      "max": [
        0.9974411725997925,
        0.9999253749847412,
        0.9991781115531921
      ],
      "type": "VEC3",
      "bufferView": 1,
      "byteOffset": 0
    },
    {
      "name": "879-Mesh_0_indices",
      "componentType": 5123,
      "count": 9888,
      "min": [
        0
      ],
      "max": [
        1649
      ],
      "type": "SCALAR",
      "bufferView": 2,
      "byteOffset": 0
    }
  ],
  "asset": {
    "generator": "obj2gltf",
    "version": "2.0"
  },
  "buffers": [
    {
      "name": "879_1",
      "byteLength": 59376,
      "uri": "data:application/octet-stream;base64,"
    }
  ],
  "bufferViews": [
    {
      "name": "bufferView_0",
      "buffer": 0,
      "byteLength": 19800,
      "byteOffset": 0,
      "byteStride": 12,
      "target": 34962
    },
    {
      "name": "bufferView_1",
      "buffer": 0,
      "byteLength": 19800,
      "byteOffset": 19800,
      "byteStride": 12,
      "target": 34962
    },
    {
      "name": "bufferView_2",
      "buffer": 0,
      "byteLength": 19776,
      "byteOffset": 39600,
      "target": 34963
    }
  ],
  "materials": [
    {
      "name": "default",
      "pbrMetallicRoughness": {
        "baseColorFactor": [
          0.5,
          0.5,
          0.5,
          1
        ],
        "metallicFactor": 0,
        "roughnessFactor": 1
      },
      "emissiveFactor": [
        0,
        0,
        0
      ],
      "alphaMode": "OPAQUE",
      "doubleSided": false
    }
  ],
  "meshes": [
    {
      "name": "879-Mesh",
      "primitives": [
        {
          "attributes": {
            "POSITION": 0,
            "NORMAL": 1
          },
          "indices": 2,
          "material": 0,
          "mode": 4
        }
      ]
    }
  ],
  "nodes": [
    {
      "name": "879",
      "mesh": 0
    }
  ],
  "scene": 0,
  "scenes": [
    {
      "nodes": [
        0
      ]
    }
  ]
}
