{
  "accessors": [
    {
      "name": "985.001-Mesh_0_positions",
      "componentType": 5126,
      "count": 2739,
      "min": [
        2704.389892578125,
        483.6659240722656,
        6421.06982421875
      ],
      "max": [
        6438.259765625,
        4287.94873046875,
        9282.8505859375
      ],
      "type": "VEC3",
      "bufferView": 0,
      "byteOffset": 0
    },
    {
      "name": "985.001-Mesh_0_normals",
      "componentType": 5126,
      "count": 2739,
      "min": [
        -0.9943581223487854,
        -0.9979316592216492,
        -0.998090386390686
      ],
      "max": [
        0.9947799444198608,
        0.9965348243713379,
        0.9953814744949341
      ],
      "type": "VEC3",
      "bufferView": 1,
      "byteOffset": 0
    },
    {
      "name": "985.001-Mesh_0_indices",
      "componentType": 5123,
      "count": 16422,
      "min": [
        0
      ],
      "max": [
        2738
      ],
      "type": "SCALAR",
      "bufferView": 2,
      "byteOffset": 0
    }
  ],
  "asset": {
    "generator": "obj2gltf",
    "version": "2.0"
  },
  "buffers": [
    {
      "name": "985_2",
      "byteLength": 98580,
      "uri": "data:application/octet-stream;base64,"
    }
  ],
  "bufferViews": [
    {
      "name": "bufferView_0",
      "buffer": 0,
      "byteLength": 32868,
      "byteOffset": 0,
      "byteStride": 12,
      "target": 34962
    },
    {
      "name": "bufferView_1",
      "buffer": 0,
      "byteLength": 32868,
      "byteOffset": 32868,
      "byteStride": 12,
      "target": 34962
    },
    {
      "name": "bufferView_2",
      "buffer": 0,
      "byteLength": 32844,
      "byteOffset": 65736,
      "target": 34963
    }
  ],
  "materials": [
    {
      "name": "default",
      "pbrMetallicRoughness": {
        "baseColorFactor": [
          0.5,
          0.5,
          0.5,
          1
        ],
        "metallicFactor": 0,
        "roughnessFactor": 1
      },
      "emissiveFactor": [
        0,
        0,
        0
      ],
      "alphaMode": "OPAQUE",
      "doubleSided": false
    }
  ],
  "meshes": [
    {
      "name": "985.001-Mesh",
      "primitives": [
        {
          "attributes": {
            "POSITION": 0,
            "NORMAL": 1
          },
          "indices": 2,
          "material": 0,
          "mode": 4
        }
      ]
    }
  ],
  "nodes": [
    {
      "name": "985.001",
      "mesh": 0
    }
  ],
  "scene": 0,
  "scenes": [
    {
      "nodes": [
        0
      ]
    }
  ]
}
