{
  "accessors": [
    {
      "name": "993-Mesh_0_positions",
      "componentType": 5126,
      "count": 3164,
      "min": [
        1939.239990234375,
        490.53118896484375,
        2796.7705078125
      ],
      "max": [
        6409.259765625,
        3798.779541015625,
        5629.0400390625
      ],
      "type": "VEC3",
      "bufferView": 0,
      "byteOffset": 0
    },
    {
      "name": "993-Mesh_0_normals",
      "componentType": 5126,
      "count": 3164,
      "min": [
        -0.9998360872268677,
        -0.9934720993041992,
        -0.9982284307479858
      ],
      "max": [
        0.9908121228218079,
        0.9993698596954346,
        0.999994158744812
      ],
      "type": "VEC3",
      "bufferView": 1,
      "byteOffset": 0
    },
    {
      "name": "993-Mesh_0_indices",
      "componentType": 5123,
      "count": 18972,
      "min": [
        0
      ],
      "max": [
        3163
      ],
      "type": "SCALAR",
      "bufferView": 2,
      "byteOffset": 0
    }
  ],
  "asset": {
    "generator": "obj2gltf",
    "version": "2.0"
  },
  "buffers": [
    {
      "name": "993_1",
      "byteLength": 113880,
      "uri": "data:application/octet-stream;base64,"
    }
  ],
  "bufferViews": [
    {
      "name": "bufferView_0",
      "buffer": 0,
      "byteLength": 37968,
      "byteOffset": 0,
      "byteStride": 12,
      "target": 34962
    },
    {
      "name": "bufferView_1",
      "buffer": 0,
      "byteLength": 37968,
      "byteOffset": 37968,
      "byteStride": 12,
      "target": 34962
    },
    {
      "name": "bufferView_2",
      "buffer": 0,
      "byteLength": 37944,
      "byteOffset": 75936,
      "target": 34963
    }
  ],
  "materials": [
    {
      "name": "default",
      "pbrMetallicRoughness": {
        "baseColorFactor": [
          0.5,
          0.5,
          0.5,
          1
        ],
        "metallicFactor": 0,
        "roughnessFactor": 1
      },
      "emissiveFactor": [
        0,
        0,
        0
      ],
      "alphaMode": "OPAQUE",
      "doubleSided": false
    }
  ],
  "meshes": [
    {
      "name": "993-Mesh",
      "primitives": [
        {
          "attributes": {
            "POSITION": 0,
            "NORMAL": 1
          },
          "indices": 2,
          "material": 0,
          "mode": 4
        }
      ]
    }
  ],
  "nodes": [
    {
      "name": "993",
      "mesh": 0
    }
  ],
  "scene": 0,
  "scenes": [
    {
      "nodes": [
        0
      ]
    }
  ]
}
