{
  "accessors": [
    {
      "name": "985-Mesh_0_positions",
      "componentType": 5126,
      "count": 2744,
      "min": [
        2709.169921875,
        481.2312316894531,
        2094.6904296875
      ],
      "max": [
        6439.669921875,
        4277.099609375,
        4958.14990234375
      ],
      "type": "VEC3",
      "bufferView": 0,
      "byteOffset": 0
    },
    {
      "name": "985-Mesh_0_normals",
      "componentType": 5126,
      "count": 2744,
      "min": [
        -0.9918355941772461,
        -0.9979345798492432,
        -0.9964208006858826
      ],
      "max": [
        0.9991457462310791,
        0.9934912919998169,
        0.9985793232917786
      ],
      "type": "VEC3",
      "bufferView": 1,
      "byteOffset": 0
    },
    {
      "name": "985-Mesh_0_indices",
      "componentType": 5123,
      "count": 16452,
      "min": [
        0
      ],
      "max": [
        2743
      ],
      "type": "SCALAR",
      "bufferView": 2,
      "byteOffset": 0
    }
  ],
  "asset": {
    "generator": "obj2gltf",
    "version": "2.0"
  },
  "buffers": [
    {
      "name": "985_1",
      "byteLength": 98760,
      "uri": "data:application/octet-stream;base64,"
    }
  ],
  "bufferViews": [
    {
      "name": "bufferView_0",
      "buffer": 0,
      "byteLength": 32928,
      "byteOffset": 0,
      "byteStride": 12,
      "target": 34962
    },
    {
      "name": "bufferView_1",
      "buffer": 0,
      "byteLength": 32928,
      "byteOffset": 32928,
      "byteStride": 12,
      "target": 34962
    },
    {
      "name": "bufferView_2",
      "buffer": 0,
      "byteLength": 32904,
      "byteOffset": 65856,
      "target": 34963
    }
  ],
  "materials": [
    {
      "name": "default",
      "pbrMetallicRoughness": {
        "baseColorFactor": [
          0.5,
          0.5,
          0.5,
          1
        ],
        "metallicFactor": 0,
        "roughnessFactor": 1
      },
      "emissiveFactor": [
        0,
        0,
        0
      ],
      "alphaMode": "OPAQUE",
      "doubleSided": false
    }
  ],
  "meshes": [
    {
      "name": "985-Mesh",
      "primitives": [
        {
          "attributes": {
            "POSITION": 0,
            "NORMAL": 1
          },
          "indices": 2,
          "material": 0,
          "mode": 4
        }
      ]
    }
  ],
  "nodes": [
    {
      "name": "985",
      "mesh": 0
    }
  ],
  "scene": 0,
  "scenes": [
    {
      "nodes": [
        0
      ]
    }
  ]
}
