{
  "accessors": [
    {
      "name": "grp1_1_0_positions",
      "componentType": 5126,
      "count": 2343,
      "min": [
        5741.5,
        3283.52001953125,
        2847.60009765625
      ],
      "max": [
        7430.43017578125,
        5307.89013671875,
        8527.400390625
      ],
      "type": "VEC3",
      "bufferView": 0,
      "byteOffset": 0
    },
    {
      "name": "grp1_1_0_normals",
      "componentType": 5126,
      "count": 2343,
      "min": [
        -0.9998970031738281,
        -0.995124340057373,
        -0.9950265884399414
      ],
      "max": [
        0.9954607486724854,
        0.9963380098342896,
        0.9991551637649536
      ],
      "type": "VEC3",
      "bufferView": 1,
      "byteOffset": 0
    },
    {
      "name": "grp1_1_0_indices",
      "componentType": 5123,
      "count": 14034,
      "min": [
        0
      ],
      "max": [
        2342
      ],
      "type": "SCALAR",
      "bufferView": 2,
      "byteOffset": 0
    }
  ],
  "asset": {
    "generator": "obj2gltf",
    "version": "2.0"
  },
  "buffers": [
    {
      "name": "262",
      "byteLength": 84300,
      "uri": "data:application/octet-stream;base64,"
    }
  ],
  "bufferViews": [
    {
      "name": "bufferView_0",
      "buffer": 0,
      "byteLength": 28116,
      "byteOffset": 0,
      "byteStride": 12,
      "target": 34962
    },
    {
      "name": "bufferView_1",
      "buffer": 0,
      "byteLength": 28116,
      "byteOffset": 28116,
      "byteStride": 12,
      "target": 34962
    },
    {
      "name": "bufferView_2",
      "buffer": 0,
      "byteLength": 28068,
      "byteOffset": 56232,
      "target": 34963
    }
  ],
  "materials": [
    {
      "name": "mtl1",
      "pbrMetallicRoughness": {
        "baseColorFactor": [
          0.5,
          0.5,
          0.5,
          1
        ],
        "metallicFactor": 0,
        "roughnessFactor": 1
      },
      "emissiveFactor": [
        0,
        0,
        0
      ],
      "alphaMode": "OPAQUE",
      "doubleSided": false
    }
  ],
  "meshes": [
    {
      "name": "grp1_1",
      "primitives": [
        {
          "attributes": {
            "POSITION": 0,
            "NORMAL": 1
          },
          "indices": 2,
          "material": 0,
          "mode": 4
        }
      ]
    }
  ],
  "nodes": [
    {
      "name": "grp1",
      "mesh": 0
    }
  ],
  "scene": 0,
  "scenes": [
    {
      "nodes": [
        0
      ]
    }
  ]
}
