{
  "accessors": [
    {
      "name": "262-Mesh_0_positions",
      "componentType": 5126,
      "count": 1206,
      "min": [
        5744.18994140625,
        3283.51953125,
        2847.600830078125
      ],
      "max": [
        7428.0498046875,
        5305.4892578125,
        5094.541015625
      ],
      "type": "VEC3",
      "bufferView": 0,
      "byteOffset": 0
    },
    {
      "name": "262-Mesh_0_normals",
      "componentType": 5126,
      "count": 1206,
      "min": [
        -0.9994082450866699,
        -0.9931938052177429,
        -0.9920222759246826
      ],
      "max": [
        0.9954677820205688,
        0.9963357448577881,
        0.9972654581069946
      ],
      "type": "VEC3",
      "bufferView": 1,
      "byteOffset": 0
    },
    {
      "name": "262-Mesh_0_indices",
      "componentType": 5123,
      "count": 7224,
      "min": [
        0
      ],
      "max": [
        1205
      ],
      "type": "SCALAR",
      "bufferView": 2,
      "byteOffset": 0
    }
  ],
  "asset": {
    "generator": "obj2gltf",
    "version": "2.0"
  },
  "buffers": [
    {
      "name": "262_1",
      "byteLength": 43392,
      "uri": "data:application/octet-stream;base64,"
    }
  ],
  "bufferViews": [
    {
      "name": "bufferView_0",
      "buffer": 0,
      "byteLength": 14472,
      "byteOffset": 0,
      "byteStride": 12,
      "target": 34962
    },
    {
      "name": "bufferView_1",
      "buffer": 0,
      "byteLength": 14472,
      "byteOffset": 14472,
      "byteStride": 12,
      "target": 34962
    },
    {
      "name": "bufferView_2",
      "buffer": 0,
      "byteLength": 14448,
      "byteOffset": 28944,
      "target": 34963
    }
  ],
  "materials": [
    {
      "name": "default",
      "pbrMetallicRoughness": {
        "baseColorFactor": [
          0.5,
          0.5,
          0.5,
          1
        ],
        "metallicFactor": 0,
        "roughnessFactor": 1
      },
      "emissiveFactor": [
        0,
        0,
        0
      ],
      "alphaMode": "OPAQUE",
      "doubleSided": false
    }
  ],
  "meshes": [
    {
      "name": "262-Mesh",
      "primitives": [
        {
          "attributes": {
            "POSITION": 0,
            "NORMAL": 1
          },
          "indices": 2,
          "material": 0,
          "mode": 4
        }
      ]
    }
  ],
  "nodes": [
    {
      "name": "262",
      "mesh": 0
    }
  ],
  "scene": 0,
  "scenes": [
    {
      "nodes": [
        0
      ]
    }
  ]
}
