{
  "accessors": [
    {
      "name": "385-Mesh_0_positions",
      "componentType": 5126,
      "count": 1766,
      "min": [
        7695.9599609375,
        372.56939697265625,
        2079.14013671875
      ],
      "max": [
        10360.7998046875,
        2248.8095703125,
        4326.72021484375
      ],
      "type": "VEC3",
      "bufferView": 0,
      "byteOffset": 0
    },
    {
      "name": "385-Mesh_0_normals",
      "componentType": 5126,
      "count": 1766,
      "min": [
        -0.9979658126831055,
        -0.9995412230491638,
        -0.999881386756897
      ],
      "max": [
        0.9996798634529114,
        0.9964218735694885,
        0.9983452558517456
      ],
      "type": "VEC3",
      "bufferView": 1,
      "byteOffset": 0
    },
    {
      "name": "385-Mesh_0_indices",
      "componentType": 5123,
      "count": 10584,
      "min": [
        0
      ],
      "max": [
        1765
      ],
      "type": "SCALAR",
      "bufferView": 2,
      "byteOffset": 0
    }
  ],
  "asset": {
    "generator": "obj2gltf",
    "version": "2.0"
  },
  "buffers": [
    {
      "name": "385_1",
      "byteLength": 63552,
      "uri": "data:application/octet-stream;base64,"
    }
  ],
  "bufferViews": [
    {
      "name": "bufferView_0",
      "buffer": 0,
      "byteLength": 21192,
      "byteOffset": 0,
      "byteStride": 12,
      "target": 34962
    },
    {
      "name": "bufferView_1",
      "buffer": 0,
      "byteLength": 21192,
      "byteOffset": 21192,
      "byteStride": 12,
      "target": 34962
    },
    {
      "name": "bufferView_2",
      "buffer": 0,
      "byteLength": 21168,
      "byteOffset": 42384,
      "target": 34963
    }
  ],
  "materials": [
    {
      "name": "default",
      "pbrMetallicRoughness": {
        "baseColorFactor": [
          0.5,
          0.5,
          0.5,
          1
        ],
        "metallicFactor": 0,
        "roughnessFactor": 1
      },
      "emissiveFactor": [
        0,
        0,
        0
      ],
      "alphaMode": "OPAQUE",
      "doubleSided": false
    }
  ],
  "meshes": [
    {
      "name": "385-Mesh",
      "primitives": [
        {
          "attributes": {
            "POSITION": 0,
            "NORMAL": 1
          },
          "indices": 2,
          "material": 0,
          "mode": 4
        }
      ]
    }
  ],
  "nodes": [
    {
      "name": "385",
      "mesh": 0
    }
  ],
  "scene": 0,
  "scenes": [
    {
      "nodes": [
        0
      ]
    }
  ]
}
