{
  "accessors": [
    {
      "name": "886-Mesh_0_positions",
      "componentType": 5126,
      "count": 1508,
      "min": [
        6021.2900390625,
        438.5251159667969,
        3917.5302734375
      ],
      "max": [
        9328.740234375,
        2121.279052734375,
        5691.330078125
      ],
      "type": "VEC3",
      "bufferView": 0,
      "byteOffset": 0
    },
    {
      "name": "886-Mesh_0_normals",
      "componentType": 5126,
      "count": 1508,
      "min": [
        -0.9994584321975708,
        -0.9968085885047913,
        -0.999997079372406
      ],
      "max": [
        0.9955205917358398,
        0.9993629455566406,
        0.9999273419380188
      ],
      "type": "VEC3",
      "bufferView": 1,
      "byteOffset": 0
    },
    {
      "name": "886-Mesh_0_indices",
      "componentType": 5123,
      "count": 9036,
      "min": [
        0
      ],
      "max": [
        1507
      ],
      "type": "SCALAR",
      "bufferView": 2,
      "byteOffset": 0
    }
  ],
  "asset": {
    "generator": "obj2gltf",
    "version": "2.0"
  },
  "buffers": [
    {
      "name": "886_1",
      "byteLength": 54264,
      "uri": "data:application/octet-stream;base64,"
    }
  ],
  "bufferViews": [
    {
      "name": "bufferView_0",
      "buffer": 0,
      "byteLength": 18096,
      "byteOffset": 0,
      "byteStride": 12,
      "target": 34962
    },
    {
      "name": "bufferView_1",
      "buffer": 0,
      "byteLength": 18096,
      "byteOffset": 18096,
      "byteStride": 12,
      "target": 34962
    },
    {
      "name": "bufferView_2",
      "buffer": 0,
      "byteLength": 18072,
      "byteOffset": 36192,
      "target": 34963
    }
  ],
  "materials": [
    {
      "name": "default",
      "pbrMetallicRoughness": {
        "baseColorFactor": [
          0.5,
          0.5,
          0.5,
          1
        ],
        "metallicFactor": 0,
        "roughnessFactor": 1
      },
      "emissiveFactor": [
        0,
        0,
        0
      ],
      "alphaMode": "OPAQUE",
      "doubleSided": false
    }
  ],
  "meshes": [
    {
      "name": "886-Mesh",
      "primitives": [
        {
          "attributes": {
            "POSITION": 0,
            "NORMAL": 1
          },
          "indices": 2,
          "material": 0,
          "mode": 4
        }
      ]
    }
  ],
  "nodes": [
    {
      "name": "886",
      "mesh": 0
    }
  ],
  "scene": 0,
  "scenes": [
    {
      "nodes": [
        0
      ]
    }
  ]
}
