{
  "accessors": [
    {
      "name": "993.001-Mesh_0_positions",
      "componentType": 5126,
      "count": 3166,
      "min": [
        1941.97998046875,
        494.79095458984375,
        5755.2001953125
      ],
      "max": [
        6405.97998046875,
        3799.478515625,
        8586.2509765625
      ],
      "type": "VEC3",
      "bufferView": 0,
      "byteOffset": 0
    },
    {
      "name": "993.001-Mesh_0_normals",
      "componentType": 5126,
      "count": 3166,
      "min": [
        -0.9999759793281555,
        -0.9828510880470276,
        -0.999186098575592
      ],
      "max": [
        0.9984827041625977,
        0.9984321594238281,
        0.9924399256706238
      ],
      "type": "VEC3",
      "bufferView": 1,
      "byteOffset": 0
    },
    {
      "name": "993.001-Mesh_0_indices",
      "componentType": 5123,
      "count": 18984,
      "min": [
        0
      ],
      "max": [
        3165
      ],
      "type": "SCALAR",
      "bufferView": 2,
      "byteOffset": 0
    }
  ],
  "asset": {
    "generator": "obj2gltf",
    "version": "2.0"
  },
  "buffers": [
    {
      "name": "993_2",
      "byteLength": 113952,
      "uri": "data:application/octet-stream;base64,"
    }
  ],
  "bufferViews": [
    {
      "name": "bufferView_0",
      "buffer": 0,
      "byteLength": 37992,
      "byteOffset": 0,
      "byteStride": 12,
      "target": 34962
    },
    {
      "name": "bufferView_1",
      "buffer": 0,
      "byteLength": 37992,
      "byteOffset": 37992,
      "byteStride": 12,
      "target": 34962
    },
    {
      "name": "bufferView_2",
      "buffer": 0,
      "byteLength": 37968,
      "byteOffset": 75984,
      "target": 34963
    }
  ],
  "materials": [
    {
      "name": "default",
      "pbrMetallicRoughness": {
        "baseColorFactor": [
          0.5,
          0.5,
          0.5,
          1
        ],
        "metallicFactor": 0,
        "roughnessFactor": 1
      },
      "emissiveFactor": [
        0,
        0,
        0
      ],
      "alphaMode": "OPAQUE",
      "doubleSided": false
    }
  ],
  "meshes": [
    {
      "name": "993.001-Mesh",
      "primitives": [
        {
          "attributes": {
            "POSITION": 0,
            "NORMAL": 1
          },
          "indices": 2,
          "material": 0,
          "mode": 4
        }
      ]
    }
  ],
  "nodes": [
    {
      "name": "993.001",
      "mesh": 0
    }
  ],
  "scene": 0,
  "scenes": [
    {
      "nodes": [
        0
      ]
    }
  ]
}
